# xmcd
#
# Track frame offsets:
#	150
#	11981
#	24713
#	37882
#	53932
#	69724
#	82501
#	100025
#	112647
#	129984
#	144327
#	161365
#	175684
#	186069
#	200603
#	212430
#	221829
#	234753
#	246915
#	261523
#
# Disc length: 3647 seconds
#
# Revision: 0
# Processed by: cddbd v1.5.2PL0 Copyright (c) Steve Scherf et al.
# Submitted via: audiograbber 1.83.01
#
DISCID=070e3d14
DTITLE=Smoky Dawson - The Great Smoky Dawson (Disk 3)
DYEAR=2006
DGENRE=Country
TTITLE0=Dick Smith's Birthday Party
TTITLE1=Driftin' Down The Roper
TTITLE2=Lovesick Blues
TTITLE3=High Country
TTITLE4=The Outhouse Down The Back
TTITLE5=Hometown Ain't Hometown Anymore
TTITLE6=You Will Never Grow Old
TTITLE7=Living All Over Again
TTITLE8=Whispering Hope
TTITLE9=The Old Rugged Cross
TTITLE10=The Lord's Last Supper
TTITLE11=Lord, Let Me Sing A Song
TTITLE12=I'm A Happy Go Lucky Cowhand
TTITLE13=My Wise Old Honey
TTITLE14=The Little Brown Dog And The Little Green Frog
TTITLE15=Money Comes, Money Goes
TTITLE16=The Hero Of The West
TTITLE17=You Turned Me On Then Turned Me Down
TTITLE18=The Girl From Silver City
TTITLE19=Follow Your Dream
EXTD=
EXTT0=
EXTT1=
EXTT2=
EXTT3=
EXTT4=
EXTT5=
EXTT6=
EXTT7=
EXTT8=
EXTT9=
EXTT10=
EXTT11=
EXTT12=
EXTT13=
EXTT14=
EXTT15=
EXTT16=
EXTT17=
EXTT18=
EXTT19=
PLAYORDER=
